# 3ds Max Wavefront OBJ Exporter v0.97b - (c)2007 guruware
# File Created: 10.02.2018 12:32:20

mtllib firewall.mtl

#
# object firewall
#

v  -9.6484 0.0000 19.7876
v  -9.6484 0.0000 -20.2124
v  10.3516 0.0000 -20.2124
v  10.3516 0.0000 19.7876
v  -9.6484 200.0000 19.7876
v  10.3516 200.0000 19.7876
v  10.3516 200.0000 -20.2124
v  -9.6484 200.0000 -20.2124
# 8 vertices

vn -0.5774 -0.5774 0.5774
vn -0.5774 -0.5774 -0.5774
vn 0.5774 -0.5774 -0.5774
vn 0.5774 -0.5774 0.5774
vn -0.5774 0.5774 0.5774
vn 0.5774 0.5774 0.5774
vn 0.5774 0.5774 -0.5774
vn -0.5774 0.5774 -0.5774
# 8 vertex normals

vt -0.6352 0.3752 0.0000
vt -0.4352 0.3752 0.0000
vt -0.6352 1.3752 0.0000
vt -0.4352 1.3752 0.0000
vt 0.4000 0.0000 0.0000
vt 0.4000 1.0000 0.0000
vt -0.2645 0.3436 0.0000
vt -0.0645 0.3436 0.0000
vt -0.0645 1.3436 0.0000
vt -0.2645 1.3436 0.0000
vt 0.6000 0.0000 0.0000
vt 0.6000 1.0000 0.0000
# 12 texture coords

o firewall
g firewall
usemtl wire_224086086
s 2
f 1/1/1 2/2/2 3/2/3 4/1/4 
s 4
f 5/3/5 6/3/6 7/4/7 8/4/8 
s 8
f 1/5/1 4/5/4 6/6/6 5/6/5 
s 16
f 4/7/4 3/8/3 7/9/7 6/10/6 
s 32
f 3/11/3 2/11/2 8/12/8 7/12/7 
s 64
f 2/8/2 1/7/1 5/10/5 8/9/8 
# 6 polygons

